# xmcd
#
# Track frame offsets:
#	187
#	19227
#	39302
#
# Disc length: 792 seconds
#
# Revision: 2
# Processed by: cddbd v1.5.2PL0 Copyright (c) Steve Scherf et al.
# Submitted via: audiograbber 1.83.01
#
DISCID=1a031603
DTITLE=Sheena Easton - Modern Girl '97 [CDM)
DYEAR=1997
DGENRE=Pop
TTITLE0=Modern Girl '97 (Album Version)
TTITLE1=Modern Girl '97 (Dance Edit)
TTITLE2=Modern Girl '97 (Instrumental)
EXTD=TR.
EXTT0=
EXTT1=
EXTT2=
PLAYORDER=
